# xmcd
#
# Track frame offsets:
#	150
#	16242
#	32495
#	42147
#	57268
#	73221
#	82161
#	93973
#	107965
#	118038
#	125932
#	133159
#	147893
#	161255
#	175193
#	186057
#
# Disc length: 2693 seconds
#
# Revision: 2
# Processed by: cddbd v1.5.2PL0 Copyright (c) Steve Scherf et al.
# Submitted via: audiograbber 1.83.01
#
DISCID=e10a8310
DTITLE=Guy Mitchell - The Collection - CD 3
DYEAR=2004
DGENRE=Country
TTITLE0=Symphony Of Spring
TTITLE1=East Of The Sun (And West Of The Moon)
TTITLE2=It's Been A Long, Long Time
TTITLE3=The Moon Got In My Eyes
TTITLE4=So Do I
TTITLE5=I've Got A Pocketful Of Dreams
TTITLE6=Where I My Live With My Love
TTITLE7=Pennies From Heaven
TTITLE8=Ridin' Around In The Rain
TTITLE9=My Dreams Are Getting Better All The Time
TTITLE10=(Did You Ever Get) That Feeling In The Moonlight
TTITLE11=Me And The Moon
TTITLE12=The Singing Hills
TTITLE13=East Side Of Heaven
TTITLE14=Allegheny Moon
TTITLE15=Was It Rain
EXTD=
EXTT0=
EXTT1=
EXTT2=
EXTT3=
EXTT4=
EXTT5=
EXTT6=
EXTT7=
EXTT8=
EXTT9=
EXTT10=
EXTT11=
EXTT12=
EXTT13=
EXTT14=
EXTT15=
PLAYORDER=
